<?xml version="1.0" standalone="no"?>
<!DOCTYPE svg PUBLIC "-//W3C//DTD SVG 20010904//EN"
 "http://www.w3.org/TR/2001/REC-SVG-20010904/DTD/svg10.dtd">
<svg version="1.0" xmlns="http://www.w3.org/2000/svg"
 width="1847.000000pt" height="1798.000000pt" viewBox="0 0 1847.000000 1798.000000"
 preserveAspectRatio="xMidYMid meet">

<g transform="translate(0.000000,1798.000000) scale(0.100000,-0.100000)"
fill="#000000" stroke="none">
<path d="M1077 17962 c-15 -17 -17 -59 -17 -395 0 -353 1 -378 18 -395 17 -17
46 -19 293 -26 1172 -29 1772 -180 2129 -536 246 -244 324 -501 380 -1245 31
-414 33 -595 37 -3497 l4 -2958 -1925 0 c-1334 0 -1933 -3 -1953 -11 -15 -5
-31 -16 -35 -22 -4 -7 -8 -105 -8 -219 0 -203 0 -207 22 -222 20 -14 911 -16
9213 -16 8302 0 9193 2 9213 16 22 15 22 19 22 245 l0 229 -1997 0 -1998 0
225 113 c266 134 371 193 585 334 586 386 1016 814 1348 1341 93 149 252 467
324 652 164 418 257 842 294 1340 15 197 6 679 -15 850 -85 675 -291 1229
-683 1829 -188 287 -362 501 -612 752 -659 659 -1428 1140 -2295 1435 -272 93
-505 151 -768 194 -172 28 -1244 124 -1998 180 -712 52 -452 50 -5286 50
-4348 0 -4501 -1 -4517 -18z m8963 -832 c606 -42 1001 -117 1341 -253 627
-252 1211 -715 1606 -1273 312 -441 533 -994 638 -1594 106 -608 109 -1346 9
-2000 -70 -453 -177 -813 -349 -1165 -269 -552 -713 -1012 -1270 -1318 -470
-258 -1113 -435 -1890 -522 -508 -56 -756 -65 -1932 -65 l-983 0 0 2868 c0
2855 3 3137 36 3557 47 616 111 874 280 1132 67 104 190 234 293 311 250 186
655 296 1227 332 167 10 791 4 994 -10z m-6165 -21 c239 -38 422 -87 585 -157
141 -59 218 -110 317 -208 83 -83 97 -103 147 -205 86 -179 141 -380 165 -609
31 -280 34 -569 38 -3767 l4 -3253 -335 0 -336 0 0 2958 c0 1757 -4 3060 -10
3212 -49 1264 -184 1656 -695 2019 -41 29 -52 41 -35 37 14 -3 84 -15 155 -27z
m8920 -377 c335 -133 656 -317 925 -531 126 -100 357 -331 458 -458 408 -515
633 -1181 719 -2123 22 -246 25 -994 5 -1220 -42 -459 -104 -800 -209 -1140
-296 -961 -901 -1608 -1830 -1955 -98 -37 -340 -115 -356 -115 -5 0 51 40 124
89 739 494 1223 1212 1464 2171 127 503 184 1115 164 1755 -29 924 -251 1743
-653 2420 -280 469 -673 887 -1147 1217 -31 22 162 -42 336 -110z"/>
<path d="M35 5738 c-11 -6 -23 -16 -27 -22 -10 -14 -10 -428 0 -443 4 -6 20
-17 35 -22 20 -8 619 -11 1953 -11 l1925 0 -4 -1327 c-4 -1368 -6 -1427 -48
-1715 -58 -405 -157 -633 -364 -844 -352 -358 -770 -460 -2095 -514 -135 -5
-260 -10 -277 -10 -20 0 -41 -8 -53 -20 -19 -19 -20 -33 -20 -398 0 -354 1
-380 18 -395 17 -16 354 -17 4650 -17 4196 0 4632 1 4646 16 14 13 16 64 16
398 0 353 -1 384 -18 399 -14 13 -60 18 -227 26 -455 24 -1049 62 -1260 82
-279 26 -554 79 -754 145 -208 68 -335 146 -486 298 -196 198 -312 426 -374
739 -57 283 -55 218 -58 1735 l-4 1402 5595 0 c3925 0 5603 3 5623 11 15 5 31
16 35 22 4 7 8 117 8 245 l0 232 -9207 0 c-6846 -1 -9213 -4 -9228 -12z m5092
-2195 c-3 -1864 0 -1745 -63 -1953 -121 -396 -393 -629 -839 -719 -111 -22
-343 -44 -418 -39 l-48 3 87 65 c311 234 500 571 587 1045 21 120 21 123 25
1708 l3 1587 335 0 334 0 -3 -1697z"/>
</g>
</svg>
